<svg id="Capa_1" data-name="Capa 1" xmlns="http://www.w3.org/2000/svg" viewBox="0 0 40.08 40.08"><circle cx="20.04" cy="20.04" r="20.04" fill="#fff"/><path d="M31.89,22a3.5,3.5,0,0,1-1.84-5A1.17,1.17,0,0,0,30,15.83a1.19,1.19,0,0,0-1.11-.5,3.25,3.25,0,0,1-.44,0A3.49,3.49,0,0,1,25,11.43a1.15,1.15,0,0,0-.5-1.11,1.17,1.17,0,0,0-1.22-.06,3.48,3.48,0,0,1-5-1.83,1.17,1.17,0,0,0-1.39-.72,12.82,12.82,0,0,0,3.29,25.21h0a12.71,12.71,0,0,0,9.06-3.75,12.86,12.86,0,0,0,3.33-5.78A1.17,1.17,0,0,0,31.89,22ZM14.63,19.57a1.22,1.22,0,0,1-.83.34,1.17,1.17,0,0,1-.82-2,1.13,1.13,0,0,1,.82-.34,1.17,1.17,0,0,1,.83.34,1.17,1.17,0,0,1,0,1.65ZM17.73,25a1.17,1.17,0,0,1-2-.83,1.16,1.16,0,0,1,.35-.82,1.16,1.16,0,0,1,1.64,0,1.15,1.15,0,0,1,.34.82A1.17,1.17,0,0,1,17.73,25Zm2.33-7.77a1.16,1.16,0,1,1-1.64-1.65,1.16,1.16,0,0,1,1.64,0,1.17,1.17,0,0,1,0,1.65Zm3.11,10.1a1.17,1.17,0,0,1-1.65-1.65,1.17,1.17,0,0,1,1.65,1.65Zm0-5.44a1.17,1.17,0,0,1-1.65,0,1.17,1.17,0,0,1,0-1.65,1.17,1.17,0,0,1,1.65,1.65Z" fill="#260242"/><path d="M34.77,17.63a1.17,1.17,0,1,0,0,1.65,1.17,1.17,0,0,0,0-1.65Z" fill="#260242"/><path d="M22.13,6.1a1.16,1.16,0,1,0,.34.82A1.14,1.14,0,0,0,22.13,6.1Z" fill="#260242"/><path d="M29.27,11a1.16,1.16,0,0,0-1.64,0,1.16,1.16,0,1,0,1.64,1.65,1.15,1.15,0,0,0,0-1.65Z" fill="#260242"/></svg>