<svg width="113" height="30" viewBox="0 0 113 30" xmlns="http://www.w3.org/2000/svg"><title>brand</title><path d="M62.666 5.234h-.002c-5.318 3.7-11.108 7.176-11.108 14.146 0 6.045 4.798 10.465 11.108 10.465h.002c6.31 0 11.108-4.42 11.108-10.465 0-6.97-5.79-10.445-11.108-14.146zm0 18.293c-2.144 0-3.774-1.783-3.774-4.223 0-2.813 1.967-4.216 3.773-5.709 1.806 1.493 3.774 2.896 3.774 5.709 0 2.44-1.63 4.223-3.773 4.223zM2.321 3.379L9.46 2.246V7.57h3.21v5.778H9.46v6.534c0 1.397 1.472 1.585 2.605 1.585.264 0 .718-.037.718-.037v6.155s-.83.227-2.644.227c-5.136 0-8.006-2.492-8.006-7.855v-6.609H.245V7.57h2.077V3.38zm48.205 10.838a4.387 4.387 0 0 0-1.172-.151c-2.453 0-3.813 1.548-3.813 4.154v9.29h-7.326V7.57h7.137v2.53c.981-1.887 3.022-3.021 5.174-3.021v7.138zm55.449 13.293H98.65V15.613c0-1.246-.756-2.077-1.926-2.077-1.134 0-1.813.906-1.813 2.077v11.895h-7.288V15.765c0-1.398-.68-2.228-1.887-2.228-1.135 0-1.813.68-1.813 2.115v11.857h-7.327V7.57h7.138v1.888c.679-1.057 2.151-2.379 4.833-2.379 2.19 0 3.89.869 5.023 2.341 1.208-1.36 2.983-2.341 5.551-2.341 4.531 0 6.835 3.437 6.835 7.59v12.84zm6.355-19.737c0 1.728-1.438 3.16-3.226 3.16-1.826 0-3.25-1.432-3.25-3.16 0-1.75 1.424-3.166 3.25-3.166 1.788 0 3.227 1.416 3.227 3.166zm-.825 0a2.402 2.402 0 0 0-2.401-2.424 2.402 2.402 0 0 0-2.424 2.424 2.405 2.405 0 0 0 2.424 2.417 2.405 2.405 0 0 0 2.401-2.417zm-1.037-.522c0 .477-.326.795-.902.879l.932 1.083h-.803l-.863-1.068h-.235v1.068h-.675v-2.91h1.371c.758 0 1.175.372 1.175.948zm-1.871.356h.681c.31 0 .5-.114.5-.356 0-.243-.19-.364-.5-.364h-.681v.72zM36.385 7.57h-8.468l-5.694 7.97V.205l-7.326 1.168v26.135h7.326v-3.276l2.62-3.083 3.803 6.36h7.782l-7.2-11.517z" fill="#FFF"/></svg>